<svg xmlns="http://www.w3.org/2000/svg" viewBox="0 0 512 512" width="512" height="512">
  <defs>
    <linearGradient id="bgGradient" x1="0%" y1="0%" x2="100%" y2="100%">
      <stop offset="0%" style="stop-color:#3b82f6;stop-opacity:1" />
      <stop offset="100%" style="stop-color:#8b5cf6;stop-opacity:1" />
    </linearGradient>
  </defs>
  
  <!-- Background -->
  <rect x="0" y="0" width="512" height="512" rx="115" ry="115" fill="url(#bgGradient)" />
  
  <!-- Main recipe card -->
  <rect x="96" y="96" width="320" height="320" rx="24" ry="24" fill="#ffffff" stroke="none" />
  
  <!-- Recipe title area -->
  <rect x="136" y="136" width="240" height="16" rx="8" fill="#1f2937" />
  <rect x="136" y="164" width="180" height="12" rx="6" fill="#6b7280" />
  
  <!-- Photo placeholder -->
  <rect x="136" y="196" width="240" height="120" rx="12" fill="#f3f4f6" />
  <circle cx="256" cy="256" r="24" fill="#d1d5db" />
  <path d="M 256 240 L 244 260 L 268 260 Z" fill="#9ca3af" />
  
  <!-- Recipe details -->
  <circle cx="156" cy="344" r="6" fill="#3b82f6" />
  <rect x="176" y="338" width="120" height="12" rx="6" fill="#e5e7eb" />
  
  <circle cx="156" cy="368" r="6" fill="#3b82f6" />
  <rect x="176" y="362" width="100" height="12" rx="6" fill="#e5e7eb" />
  
  <!-- AI indicator -->
  <circle cx="376" cy="136" r="20" fill="#fbbf24" />
  <text x="376" y="143" font-family="Arial, sans-serif" font-size="16" font-weight="bold" fill="white" text-anchor="middle">AI</text>
</svg>