<svg xmlns="http://www.w3.org/2000/svg" viewBox="0 0 512 512" width="512" height="512">
  <!-- Background gradient -->
  <defs>
    <linearGradient id="bgGradient" x1="0%" y1="0%" x2="100%" y2="100%">
      <stop offset="0%" style="stop-color:#2563eb;stop-opacity:1" />
      <stop offset="100%" style="stop-color:#7c3aed;stop-opacity:1" />
    </linearGradient>
    <linearGradient id="plateGradient" x1="0%" y1="0%" x2="100%" y2="100%">
      <stop offset="0%" style="stop-color:#f8fafc;stop-opacity:1" />
      <stop offset="100%" style="stop-color:#e2e8f0;stop-opacity:1" />
    </linearGradient>
  </defs>
  
  <!-- Background rounded square -->
  <rect x="0" y="0" width="512" height="512" rx="115" ry="115" fill="url(#bgGradient)" />
  
  <!-- Chef hat -->
  <g transform="translate(256,180)">
    <!-- Hat base -->
    <ellipse cx="0" cy="45" rx="85" ry="25" fill="#ffffff" opacity="0.95"/>
    <!-- Hat puff -->
    <circle cx="-35" cy="-25" r="32" fill="#ffffff" opacity="0.9"/>
    <circle cx="5" cy="-35" r="38" fill="#ffffff" opacity="0.95"/>
    <circle cx="35" cy="-20" r="30" fill="#ffffff" opacity="0.9"/>
    <!-- Hat band -->
    <rect x="-85" y="35" width="170" height="20" fill="#ffffff" opacity="0.98"/>
  </g>
  
  <!-- Plate -->
  <circle cx="256" cy="340" r="120" fill="url(#plateGradient)" stroke="#cbd5e1" stroke-width="3"/>
  
  <!-- Fork -->
  <g transform="translate(180,320) rotate(-25)">
    <rect x="-3" y="0" width="6" height="80" fill="#64748b"/>
    <rect x="-12" y="-8" width="4" height="20" fill="#64748b"/>
    <rect x="-4" y="-8" width="4" height="20" fill="#64748b"/>
    <rect x="4" y="-8" width="4" height="20" fill="#64748b"/>
    <rect x="12" y="-8" width="4" height="20" fill="#64748b"/>
  </g>
  
  <!-- Knife -->
  <g transform="translate(332,320) rotate(25)">
    <rect x="-2" y="0" width="4" height="60" fill="#64748b"/>
    <path d="M -8,-10 L 8,-10 L 8,-45 L 0,-50 Z" fill="#e2e8f0"/>
  </g>
  
  <!-- Sparkle/AI indicator -->
  <g transform="translate(400,120)">
    <path d="M 0,-15 L 5,0 L 0,15 L -5,0 Z" fill="#fbbf24"/>
    <path d="M -15,0 L 0,5 L 15,0 L 0,-5 Z" fill="#fbbf24"/>
  </g>
</svg>