<svg xmlns="http://www.w3.org/2000/svg" viewBox="0 0 1024 1024" width="1024" height="1024">
  <!-- Background -->
  <rect x="0" y="0" width="1024" height="1024" rx="230" ry="230" fill="#3b82f6" />
  
  <!-- White recipe card -->
  <rect x="192" y="192" width="640" height="640" rx="48" ry="48" fill="#ffffff" />
  
  <!-- Recipe text lines -->
  <rect x="272" y="320" width="480" height="32" rx="16" fill="#1f2937" />
  <rect x="272" y="384" width="360" height="24" rx="12" fill="#6b7280" />
  <rect x="272" y="432" width="420" height="24" rx="12" fill="#6b7280" />
  
  <!-- Ingredients bullets -->
  <circle cx="312" cy="520" r="12" fill="#3b82f6" />
  <rect x="352" y="508" width="300" height="24" rx="12" fill="#e5e7eb" />
  
  <circle cx="312" cy="580" r="12" fill="#3b82f6" />
  <rect x="352" y="568" width="260" height="24" rx="12" fill="#e5e7eb" />
  
  <circle cx="312" cy="640" r="12" fill="#3b82f6" />
  <rect x="352" y="628" width="320" height="24" rx="12" fill="#e5e7eb" />
  
  <!-- Recipe step number -->
  <circle cx="312" cy="720" r="24" fill="#8b5cf6" />
  <text x="312" y="734" font-family="Arial, sans-serif" font-size="28" font-weight="bold" fill="white" text-anchor="middle">1</text>
  <rect x="360" y="708" width="240" height="24" rx="12" fill="#e5e7eb" />
</svg>