<svg xmlns="http://www.w3.org/2000/svg" viewBox="0 0 512 512" width="512" height="512">
  <defs>
    <linearGradient id="bgGradient" x1="0%" y1="0%" x2="100%" y2="100%">
      <stop offset="0%" style="stop-color:#2563eb;stop-opacity:1" />
      <stop offset="100%" style="stop-color:#7c3aed;stop-opacity:1" />
    </linearGradient>
  </defs>
  
  <!-- Background -->
  <rect x="0" y="0" width="512" height="512" rx="115" ry="115" fill="url(#bgGradient)" />
  
  <!-- Recipe book/document -->
  <rect x="140" y="120" width="232" height="272" rx="16" ry="16" fill="#ffffff" />
  
  <!-- Lines representing recipe text -->
  <rect x="170" y="160" width="180" height="8" rx="4" fill="#e2e8f0" />
  <rect x="170" y="185" width="140" height="8" rx="4" fill="#e2e8f0" />
  <rect x="170" y="210" width="160" height="8" rx="4" fill="#e2e8f0" />
  
  <!-- Ingredients section -->
  <circle cx="180" cy="250" r="4" fill="#3b82f6" />
  <rect x="195" y="246" width="120" height="8" rx="4" fill="#e2e8f0" />
  
  <circle cx="180" cy="275" r="4" fill="#3b82f6" />
  <rect x="195" y="271" width="100" height="8" rx="4" fill="#e2e8f0" />
  
  <circle cx="180" cy="300" r="4" fill="#3b82f6" />
  <rect x="195" y="296" width="130" height="8" rx="4" fill="#e2e8f0" />
  
  <!-- Instructions section -->
  <rect x="170" y="335" width="20" height="20" rx="10" fill="#7c3aed" />
  <text x="180" y="349" font-family="Arial, sans-serif" font-size="14" font-weight="bold" fill="white" text-anchor="middle">1</text>
  <rect x="200" y="340" width="110" height="8" rx="4" fill="#e2e8f0" />
  
  <!-- AI sparkle indicator -->
  <g transform="translate(350,140)">
    <path d="M 0,-12 L 4,0 L 0,12 L -4,0 Z" fill="#fbbf24"/>
    <path d="M -12,0 L 0,4 L 12,0 L 0,-4 Z" fill="#fbbf24"/>
  </g>
</svg>